# This file uses centimeters as units for non-parametric coordinates.

mtllib MP_SM_St_DecoracionParedPergamino_v01.mtl
g default
v 66.250656 -46.271545 -10.148682
v -64.652618 -46.271545 -10.148682
v 66.250656 -60.640015 0.000000
v -64.652618 -60.640015 0.000000
v 66.250656 72.591980 -10.148682
v -64.652618 72.591980 -10.148682
v 66.250656 86.960449 0.000000
v -64.652618 86.960449 0.000000
v 62.446213 -50.491272 17.578125
v 66.250656 -52.460632 14.167114
v 62.446213 -43.061890 10.148682
v 66.250656 -46.472900 8.179321
v 62.446213 -40.342590 0.000000
v 66.250656 -43.261841 -3.804443
v 66.250656 -50.992126 -13.773682
v 62.446213 -50.491272 -17.578125
v 62.446213 -60.640015 -20.297485
v 66.250656 -60.640015 -16.358765
v 62.446213 -70.788757 -17.578125
v 66.250656 -68.819397 -14.167114
v 62.446213 -78.218140 -10.148682
v 66.250656 -74.807129 -8.179321
v 62.446213 -80.937439 0.000000
v 66.250656 -76.998779 0.000000
v 62.446213 -78.218140 10.148682
v 66.250656 -74.807129 8.179321
v 62.446213 -70.788757 17.578125
v 66.250656 -68.819397 14.167114
v 62.446213 -60.640015 20.297485
v 66.250656 -60.640015 16.358765
v -60.848175 -50.491272 17.578125
v -64.652618 -52.460632 14.167114
v -60.848175 -43.061890 10.148682
v -64.652618 -46.472900 8.179321
v -64.652618 -43.261841 -3.804443
v -60.848175 -40.342590 0.000000
v -60.848175 -50.491272 -17.578125
v -64.652618 -50.992126 -13.773682
v -60.848175 -60.640015 -20.297485
v -64.652618 -60.640015 -16.358765
v -60.848175 -70.788757 -17.578125
v -64.652618 -68.819397 -14.167114
v -60.848175 -78.218140 -10.148682
v -64.652618 -74.807129 -8.179321
v -60.848175 -80.937439 0.000000
v -64.652618 -76.998779 0.000000
v -60.848175 -78.218140 10.148682
v -64.652618 -74.807129 8.179321
v -60.848175 -70.788757 17.578125
v -64.652618 -68.819397 14.167114
v -60.848175 -60.640015 20.297485
v -64.652618 -60.640015 16.358765
v 62.446213 97.109192 17.578125
v 66.250656 95.139832 14.167114
v 62.446213 104.538574 10.148682
v 66.250656 101.127563 8.179321
v 62.446213 107.257874 0.000000
v 66.250656 103.319214 0.000000
v 62.446213 104.538574 -10.148682
v 66.250656 101.127563 -8.179321
v 62.446213 97.109192 -17.578125
v 66.250656 95.139832 -14.167114
v 62.446213 86.960449 -20.297485
v 66.250656 86.960449 -16.358765
v 62.446213 76.811707 -17.578125
v 66.250656 77.312561 -13.773682
v 66.250656 69.582275 -3.804443
v 62.446213 66.663025 0.000000
v 62.446213 69.382324 10.148682
v 66.250656 72.793335 8.179321
v 62.446213 76.811707 17.578125
v 66.250656 78.781067 14.167114
v 62.446213 86.960449 20.297485
v 66.250656 86.960449 16.358765
v -60.848175 97.109192 17.578125
v -64.652618 95.139832 14.167114
v -60.848175 104.538574 10.148682
v -64.652618 101.127563 8.179321
v -60.848175 107.257874 0.000000
v -64.652618 103.319214 0.000000
v -60.848175 104.538574 -10.148682
v -64.652618 101.127563 -8.179321
v -60.848175 97.109192 -17.578125
v -64.652618 95.139832 -14.167114
v -60.848175 86.960449 -20.297485
v -64.652618 86.960449 -16.358765
v -64.652618 77.312561 -13.773682
v -60.848175 76.811707 -17.578125
v -60.848175 66.663025 0.000000
v -64.652618 69.582275 -3.804443
v -60.848175 69.382324 10.148682
v -64.652618 72.793335 8.179321
v -60.848175 76.811707 17.578125
v -64.652618 78.781067 14.167114
v -60.848175 86.960449 20.297485
v -64.652618 86.960449 16.358765
v -72.298798 -60.651489 0.000000
v 73.082077 -60.651489 0.000000
v -70.407623 -67.889587 7.238159
v -72.298798 -66.442139 5.790649
v -70.407623 -70.887756 0.000000
v -72.298798 -68.840698 0.000000
v -70.407623 -67.889587 -7.238159
v -72.298798 -66.442139 -5.790649
v -70.407623 -60.651489 -10.236206
v -72.298798 -60.651489 -8.189209
v -70.407623 -53.413391 -7.238159
v -72.298798 -54.860840 -5.790649
v -70.407623 -50.415222 0.000000
v -72.298798 -52.462280 0.000000
v -70.407623 -53.413391 7.238159
v -72.298798 -54.860840 5.790649
v -70.407623 -60.651489 10.236206
v -72.298798 -60.651489 8.189209
v 71.190872 -67.889587 7.238159
v 73.082077 -66.442139 5.790649
v 71.190872 -70.887756 0.000000
v 73.082077 -68.840698 0.000000
v 71.190872 -67.889587 -7.238159
v 73.082077 -66.442139 -5.790649
v 71.190872 -60.651489 -10.236206
v 73.082077 -60.651489 -8.189209
v 71.190872 -53.413391 -7.238159
v 73.082077 -54.860840 -5.790649
v 71.190872 -50.415222 0.000000
v 73.082077 -52.462280 0.000000
v 71.190872 -53.413391 7.238159
v 73.082077 -54.860840 5.790649
v 71.190872 -60.651489 10.236206
v 73.082077 -60.651489 8.189209
v -72.298798 86.960449 0.000000
v 73.172104 86.960449 0.000000
v -70.407623 79.722351 7.238159
v -72.298798 81.169800 5.790649
v -70.407623 76.724182 0.000000
v -72.298798 78.771240 0.000000
v -70.317596 79.722351 -7.238159
v -72.298798 81.169800 -5.790649
v -70.317596 86.960449 -10.236206
v -72.298798 86.960449 -8.189209
v -70.407623 94.198547 -7.238159
v -72.298798 92.751099 -5.790649
v -70.407623 97.196716 0.000000
v -72.298798 95.149658 0.000000
v -70.407623 94.198547 7.238159
v -72.298798 92.751099 5.790649
v -70.407623 86.960449 10.236206
v -72.298798 86.960449 8.189209
v 71.280899 79.722351 7.238159
v 73.172104 81.169800 5.790649
v 71.280899 76.724182 0.000000
v 73.172104 78.771240 0.000000
v 71.280899 79.722351 -7.238159
v 73.172104 81.169800 -5.790649
v 71.280899 86.960449 -10.236206
v 73.172104 86.960449 -8.189209
v 71.280899 94.198547 -7.238159
v 73.172104 92.751099 -5.790649
v 71.280899 97.196716 0.000000
v 73.172104 95.149658 0.000000
v 71.280899 94.198547 7.238159
v 73.172104 92.751099 5.790649
v 71.280899 86.960449 10.236206
v 73.172104 86.960449 8.189209
vt 0.907413 0.368081
vt 0.896285 0.372782
vt 0.884188 0.358657
vt 0.891883 0.349385
vt 0.911781 0.391999
vt 0.899761 0.390746
vt 0.857717 0.347743
vt 0.869623 0.340577
vt 0.857511 0.097500
vt 0.869373 0.104635
vt 0.835422 0.364623
vt 0.823497 0.363383
vt 0.823253 0.081879
vt 0.835185 0.080639
vt 0.829138 0.386189
vt 0.817226 0.386544
vt 0.833102 0.404227
vt 0.822538 0.409982
vt 0.845242 0.417787
vt 0.838691 0.427928
vt 0.862445 0.423490
vt 0.861654 0.435552
vt 0.880207 0.419891
vt 0.885417 0.430804
vt 0.893855 0.407939
vt 0.903737 0.414905
vt 0.719049 0.367490
vt 0.729970 0.372508
vt 0.726315 0.390349
vt 0.714272 0.391132
vt 0.734608 0.349283
vt 0.742118 0.358513
vt 0.756701 0.340683
vt 0.768562 0.347818
vt 0.756458 0.104741
vt 0.768364 0.097576
vt 0.802821 0.363440
vt 0.790888 0.364680
vt 0.790659 0.080696
vt 0.802584 0.081936
vt 0.809060 0.386858
vt 0.796996 0.386376
vt 0.803339 0.410549
vt 0.792909 0.404451
vt 0.786730 0.428340
vt 0.780566 0.417943
vt 0.763529 0.435553
vt 0.763237 0.423465
vt 0.739828 0.430337
vt 0.745493 0.419653
vt 0.721839 0.414101
vt 0.732000 0.407554
vt 0.904233 0.031216
vt 0.894072 0.037763
vt 0.880579 0.025665
vt 0.886244 0.014980
vt 0.911801 0.054185
vt 0.899758 0.054969
vt 0.862835 0.021854
vt 0.862542 0.009766
vt 0.845506 0.027376
vt 0.839341 0.016979
vt 0.833164 0.040869
vt 0.822733 0.034771
vt 0.829077 0.058943
vt 0.817012 0.058462
vt 0.883955 0.086805
vt 0.891466 0.096035
vt 0.896103 0.072810
vt 0.907024 0.077827
vt 0.722346 0.030412
vt 0.732227 0.037378
vt 0.726321 0.054571
vt 0.714301 0.053318
vt 0.740666 0.014514
vt 0.745875 0.025426
vt 0.764428 0.009766
vt 0.763637 0.021828
vt 0.787391 0.017391
vt 0.780840 0.027532
vt 0.803544 0.035337
vt 0.792980 0.041092
vt 0.808856 0.058776
vt 0.796944 0.059130
vt 0.734198 0.095932
vt 0.741893 0.086660
vt 0.718669 0.077236
vt 0.729796 0.072535
vt 0.009794 0.804809
vt 0.009793 0.781631
vt 0.281784 0.781621
vt 0.281785 0.804799
vt 0.009792 0.758453
vt 0.281783 0.758443
vt 0.009800 0.990234
vt 0.009799 0.967056
vt 0.281790 0.967047
vt 0.281791 0.990225
vt 0.009799 0.943878
vt 0.281789 0.943868
vt 0.009798 0.920700
vt 0.281789 0.920690
vt 0.009797 0.897522
vt 0.281788 0.897512
vt 0.009796 0.874344
vt 0.281787 0.874334
vt 0.009795 0.851165
vt 0.281786 0.851156
vt 0.009795 0.827987
vt 0.281785 0.827978
vt 0.864161 0.387246
vt 0.843525 0.354272
vt 0.761996 0.387238
vt 0.782768 0.354334
vt 0.009781 0.429683
vt 0.009780 0.406505
vt 0.281771 0.406495
vt 0.281771 0.429673
vt 0.009779 0.383326
vt 0.281770 0.383317
vt 0.009778 0.360148
vt 0.281769 0.360139
vt 0.009777 0.336970
vt 0.281768 0.336961
vt 0.009776 0.313792
vt 0.281767 0.313782
vt 0.009776 0.290614
vt 0.281767 0.290604
vt 0.009784 0.522395
vt 0.009783 0.499217
vt 0.281774 0.499208
vt 0.281775 0.522386
vt 0.009782 0.476039
vt 0.281773 0.476030
vt 0.009781 0.452861
vt 0.281772 0.452851
vt 0.864076 0.058080
vt 0.843305 0.090985
vt 0.761920 0.058072
vt 0.782556 0.091047
vt 0.009766 0.009780
vt 0.281757 0.009770
vt 0.680900 0.009770
vt 0.678444 0.015474
vt 0.664717 0.015622
vt 0.662420 0.009856
vt 0.693970 0.022787
vt 0.688200 0.025084
vt 0.655060 0.025511
vt 0.649356 0.023329
vt 0.655127 0.038680
vt 0.649356 0.040703
vt 0.664884 0.048471
vt 0.662428 0.054170
vt 0.678612 0.048480
vt 0.680909 0.054249
vt 0.688269 0.038772
vt 0.693974 0.041228
vt 0.305367 0.009781
vt 0.307664 0.015550
vt 0.298006 0.025258
vt 0.292302 0.022803
vt 0.323848 0.009859
vt 0.321392 0.015559
vt 0.336920 0.023327
vt 0.331149 0.025350
vt 0.336920 0.040700
vt 0.331216 0.038519
vt 0.323856 0.054173
vt 0.321559 0.048408
vt 0.305376 0.054260
vt 0.307832 0.048556
vt 0.292306 0.041243
vt 0.298076 0.038946
vt 0.649356 0.127136
vt 0.649355 0.144423
vt 0.336919 0.144421
vt 0.336919 0.127134
vt 0.649355 0.161710
vt 0.336919 0.161707
vt 0.649356 0.057989
vt 0.336920 0.057987
vt 0.649356 0.075276
vt 0.336920 0.075274
vt 0.649356 0.092563
vt 0.336919 0.092560
vt 0.649356 0.109850
vt 0.336919 0.109847
vt 0.671664 0.032012
vt 0.314612 0.032018
vt 0.705171 0.172660
vt 0.699386 0.174918
vt 0.689696 0.165244
vt 0.692189 0.159557
vt 0.705051 0.191098
vt 0.699364 0.188605
vt 0.675969 0.165300
vt 0.673710 0.159520
vt 0.666247 0.175124
vt 0.660558 0.172905
vt 0.666226 0.188292
vt 0.660442 0.190276
vt 0.675916 0.198147
vt 0.673423 0.203830
vt 0.689642 0.198247
vt 0.691901 0.204032
vt 0.731859 0.334096
vt 0.729561 0.328323
vt 0.739225 0.318612
vt 0.744932 0.321069
vt 0.713369 0.334015
vt 0.715827 0.328313
vt 0.700293 0.320539
vt 0.706067 0.318516
vt 0.700295 0.303157
vt 0.706001 0.305341
vt 0.713366 0.289679
vt 0.715664 0.295448
vt 0.731855 0.289595
vt 0.729398 0.295301
vt 0.744931 0.302619
vt 0.739157 0.304917
vt 0.659976 0.259415
vt 0.659860 0.276699
vt 0.347458 0.274591
vt 0.347574 0.257306
vt 0.659744 0.293984
vt 0.347342 0.291876
vt 0.387704 0.320454
vt 0.387706 0.303159
vt 0.348040 0.188166
vt 0.348156 0.170881
vt 0.660326 0.207560
vt 0.347923 0.205451
vt 0.660209 0.224845
vt 0.347807 0.222736
vt 0.660093 0.242130
vt 0.347691 0.240021
vt 0.682806 0.181735
vt 0.722612 0.311846
vn 0.024791 0.499849 0.865758
vn 0.926602 0.188023 0.325662
vn 0.934710 0.312173 0.169896
vn 0.027294 0.866036 0.499236
vn 0.024791 0.000000 0.999693
vn 0.926602 0.000000 0.376043
vn 0.977855 0.020418 0.208287
vn 0.042911 0.092233 0.994812
vn 0.977855 -0.020418 0.208287
vn 0.042911 -0.092233 0.994812
vn 0.848627 0.010187 -0.528893
vn 0.031760 0.019754 -0.999300
vn 0.031760 -0.019754 -0.999300
vn 0.848627 -0.010187 -0.528893
vn 0.930101 0.003790 -0.367284
vn 0.025759 0.000257 -0.999668
vn 0.926602 -0.188023 -0.325662
vn 0.024791 -0.499849 -0.865758
vn 0.926602 -0.325663 -0.188021
vn 0.024791 -0.865760 -0.499844
vn 0.926602 -0.376044 0.000000
vn 0.024791 -0.999693 0.000000
vn 0.926602 -0.325663 0.188021
vn 0.024791 -0.865760 0.499844
vn 0.926602 -0.188023 0.325662
vn 0.024791 -0.499849 0.865758
vn -0.024791 0.499849 0.865758
vn -0.926602 0.188022 0.325662
vn -0.926602 -0.000000 0.376043
vn -0.024791 0.000000 0.999693
vn -0.027294 0.866036 0.499236
vn -0.934711 0.312173 0.169896
vn -0.042911 0.092233 0.994812
vn -0.977855 0.020418 0.208287
vn -0.042911 -0.092233 0.994812
vn -0.977855 -0.020418 0.208287
vn -0.031760 0.019754 -0.999300
vn -0.848627 0.010187 -0.528893
vn -0.848627 -0.010187 -0.528893
vn -0.031760 -0.019754 -0.999300
vn -0.025759 0.000257 -0.999668
vn -0.930101 0.003790 -0.367284
vn -0.024791 -0.499849 -0.865758
vn -0.926602 -0.188023 -0.325662
vn -0.024791 -0.865760 -0.499844
vn -0.926602 -0.325663 -0.188021
vn -0.024791 -0.999693 0.000000
vn -0.926602 -0.376044 0.000000
vn -0.024791 -0.865760 0.499844
vn -0.926602 -0.325663 0.188021
vn -0.024791 -0.499849 0.865758
vn -0.926602 -0.188023 0.325662
vn 0.024791 0.499849 0.865758
vn 0.926602 0.188023 0.325663
vn 0.926602 0.325663 0.188021
vn 0.024791 0.865760 0.499844
vn 0.024791 0.000000 0.999693
vn 0.926602 0.000000 0.376043
vn 0.926602 0.376044 0.000000
vn 0.024791 0.999693 0.000000
vn 0.926602 0.325663 -0.188021
vn 0.024791 0.865760 -0.499844
vn 0.926602 0.188023 -0.325663
vn 0.024791 0.499849 -0.865758
vn 0.930101 -0.003790 -0.367284
vn 0.025759 -0.000257 -0.999668
vn 0.934710 -0.312173 0.169896
vn 0.027294 -0.866036 0.499236
vn 0.926602 -0.188023 0.325662
vn 0.024791 -0.499849 0.865758
vn -0.024791 0.499849 0.865758
vn -0.926602 0.188022 0.325663
vn -0.926602 -0.000000 0.376043
vn -0.024791 0.000000 0.999693
vn -0.024791 0.865760 0.499844
vn -0.926602 0.325663 0.188021
vn -0.024791 0.999693 0.000000
vn -0.926602 0.376044 -0.000000
vn -0.024791 0.865760 -0.499844
vn -0.926602 0.325663 -0.188021
vn -0.024791 0.499849 -0.865758
vn -0.926602 0.188023 -0.325663
vn -0.025759 -0.000257 -0.999668
vn -0.930101 -0.003790 -0.367284
vn -0.027294 -0.866036 0.499236
vn -0.934710 -0.312173 0.169896
vn -0.024791 -0.499849 0.865758
vn -0.926602 -0.188023 0.325662
vn 1.000000 -0.000000 0.000000
vn 1.000000 0.000000 0.000000
vn -1.000000 -0.000000 0.000000
vn -1.000000 0.000000 0.000000
vn 1.000000 -0.000000 0.000000
vn 1.000000 0.000000 0.000000
vn -1.000000 0.000000 0.000000
vn -1.000000 0.000000 0.000000
vn -0.010547 -0.707065 0.707070
vn -0.917337 -0.281508 0.281507
vn -0.917337 -0.398112 0.000000
vn -0.010547 -0.999944 0.000000
vn -0.010547 0.000000 0.999944
vn -0.917337 -0.000000 0.398112
vn -0.917337 -0.281508 -0.281507
vn -0.010547 -0.707065 -0.707070
vn -0.917337 -0.000000 -0.398112
vn -0.010547 0.000000 -0.999944
vn -0.917337 0.281508 -0.281507
vn -0.010547 0.707066 -0.707069
vn -0.917337 0.398112 -0.000000
vn -0.010547 0.999944 0.000000
vn -0.917337 0.281508 0.281507
vn -0.010547 0.707066 0.707069
vn 0.010547 -0.707065 0.707070
vn 0.917335 -0.281511 0.281511
vn 0.917335 -0.000001 0.398117
vn 0.010547 0.000000 0.999944
vn 0.010547 -0.999944 0.000000
vn 0.917335 -0.398116 0.000000
vn 0.010547 -0.707065 -0.707070
vn 0.917335 -0.281511 -0.281511
vn 0.010547 0.000000 -0.999944
vn 0.917335 0.000000 -0.398117
vn 0.010547 0.707066 -0.707069
vn 0.917335 0.281511 -0.281511
vn 0.010547 0.999944 0.000000
vn 0.917335 0.398116 -0.000000
vn 0.010547 0.707066 0.707069
vn 0.917335 0.281511 0.281511
vn -1.000000 0.000000 0.000000
vn 1.000000 0.000000 0.000000
vn -0.010540 -0.707065 0.707070
vn -0.917337 -0.281508 0.281507
vn -0.915790 -0.401644 -0.003228
vn -0.010612 -0.999943 0.001478
vn -0.010540 -0.000000 0.999945
vn -0.917337 -0.000000 0.398112
vn -0.912178 -0.287491 -0.292029
vn -0.010521 -0.708102 -0.706032
vn -0.912177 -0.003209 -0.409783
vn -0.010521 0.001467 -0.999944
vn -0.915790 0.281724 -0.286287
vn -0.010612 0.708109 -0.706023
vn -0.917337 0.398112 -0.000000
vn -0.010540 0.999944 0.000000
vn -0.917337 0.281508 0.281507
vn -0.010540 0.707065 0.707070
vn 0.010540 -0.707065 0.707070
vn 0.917335 -0.281512 0.281510
vn 0.917335 0.000000 0.398117
vn 0.010540 -0.000000 0.999944
vn 0.010542 -0.999944 0.000065
vn 0.917335 -0.398117 0.000000
vn 0.010545 -0.707111 -0.707024
vn 0.917335 -0.281512 -0.281510
vn 0.010545 0.000065 -0.999944
vn 0.917335 0.000000 -0.398117
vn 0.010542 0.707111 -0.707024
vn 0.917335 0.281512 -0.281511
vn 0.010540 0.999945 0.000000
vn 0.917335 0.398117 -0.000000
vn 0.010540 0.707065 0.707070
vn 0.917335 0.281512 0.281510
vn -1.000000 0.000000 0.000000
vn 1.000000 0.000000 0.000000
s 1
g MP_SM_St_DecoracionParedPergamino_v01
usemtl initialShadingGroup
f 9/1/1 10/2/2 12/3/3 11/4/4
f 10/2/2 9/1/1 29/5/5 30/6/6
f 11/4/4 12/3/3 14/7/7 13/8/8
f 13/8/8 14/7/7 67/9/9 68/10/10
f 15/11/11 16/12/12 65/13/13 66/14/14
f 16/12/12 15/11/11 18/15/15 17/16/16
f 17/16/16 18/15/15 20/17/17 19/18/18
f 19/18/18 20/17/17 22/19/19 21/20/20
f 21/20/20 22/19/19 24/21/21 23/22/22
f 23/22/22 24/21/21 26/23/23 25/24/24
f 25/24/24 26/23/23 28/25/25 27/26/26
f 27/26/26 28/25/25 30/6/6 29/5/5
f 31/27/27 32/28/28 52/29/29 51/30/30
f 32/28/28 31/27/27 33/31/31 34/32/32
f 34/32/32 33/31/31 36/33/33 35/34/34
f 35/34/34 36/33/33 89/35/35 90/36/36
f 37/37/37 38/38/38 87/39/39 88/40/40
f 38/38/38 37/37/37 39/41/41 40/42/42
f 40/42/42 39/41/41 41/43/43 42/44/44
f 42/44/44 41/43/43 43/45/45 44/46/46
f 44/46/46 43/45/45 45/47/47 46/48/48
f 46/48/48 45/47/47 47/49/49 48/50/50
f 48/50/50 47/49/49 49/51/51 50/52/52
f 50/52/52 49/51/51 51/30/30 52/29/29
f 53/53/53 54/54/54 56/55/55 55/56/56
f 54/54/54 53/53/53 73/57/57 74/58/58
f 55/56/56 56/55/55 58/59/59 57/60/60
f 57/60/60 58/59/59 60/61/61 59/62/62
f 59/62/62 60/61/61 62/63/63 61/64/64
f 61/64/64 62/63/63 64/65/65 63/66/66
f 63/66/66 64/65/65 66/14/14 65/13/13
f 68/10/10 67/9/9 70/67/67 69/68/68
f 69/68/68 70/67/67 72/69/69 71/70/70
f 71/70/70 72/69/69 74/58/58 73/57/57
f 75/71/71 76/72/72 96/73/73 95/74/74
f 76/72/72 75/71/71 77/75/75 78/76/76
f 78/76/76 77/75/75 79/77/77 80/78/78
f 80/78/78 79/77/77 81/79/79 82/80/80
f 82/80/80 81/79/79 83/81/81 84/82/82
f 84/82/82 83/81/81 85/83/83 86/84/84
f 86/84/84 85/83/83 88/40/40 87/39/39
f 90/36/36 89/35/35 91/85/85 92/86/86
f 92/86/86 91/85/85 93/87/87 94/88/88
f 94/88/88 93/87/87 95/74/74 96/73/73
f 9/89/1 11/90/4 33/91/31 31/92/27
f 11/90/4 13/93/8 36/94/33 33/91/31
f 16/95/12 17/96/16 39/97/41 37/98/37
f 17/96/16 19/99/18 41/100/43 39/97/41
f 19/99/18 21/101/20 43/102/45 41/100/43
f 21/101/20 23/103/22 45/104/47 43/102/45
f 23/103/22 25/105/24 47/106/49 45/104/47
f 25/105/24 27/107/26 49/108/51 47/106/49
f 27/107/26 29/109/5 51/110/30 49/108/51
f 29/109/5 9/89/1 31/92/27 51/110/30
f 12/3/3 10/2/2 3/111/89
f 14/7/7 12/3/3 3/111/89
f 1/112/90 14/7/7 3/111/89
f 15/11/11 1/112/90 3/111/89
f 18/15/15 15/11/11 3/111/89
f 20/17/17 18/15/15 3/111/89
f 22/19/19 20/17/17 3/111/89
f 24/21/21 22/19/19 3/111/89
f 26/23/23 24/21/21 3/111/89
f 28/25/25 26/23/23 3/111/89
f 30/6/6 28/25/25 3/111/89
f 10/2/2 30/6/6 3/111/89
f 32/28/28 34/32/32 4/113/91
f 34/32/32 35/34/34 4/113/91
f 35/34/34 2/114/92 4/113/91
f 2/114/92 38/38/38 4/113/91
f 38/38/38 40/42/42 4/113/91
f 40/42/42 42/44/44 4/113/91
f 42/44/44 44/46/46 4/113/91
f 44/46/46 46/48/48 4/113/91
f 46/48/48 48/50/50 4/113/91
f 48/50/50 50/52/52 4/113/91
f 50/52/52 52/29/29 4/113/91
f 52/29/29 32/28/28 4/113/91
f 53/115/53 55/116/56 77/117/75 75/118/71
f 55/116/56 57/119/60 79/120/77 77/117/75
f 57/119/60 59/121/62 81/122/79 79/120/77
f 59/121/62 61/123/64 83/124/81 81/122/79
f 61/123/64 63/125/66 85/126/83 83/124/81
f 63/125/66 65/127/13 88/128/40 85/126/83
f 68/129/10 69/130/68 91/131/85 89/132/35
f 69/130/68 71/133/70 93/134/87 91/131/85
f 71/133/70 73/135/57 95/136/74 93/134/87
f 73/135/57 53/115/53 75/118/71 95/136/74
f 56/55/55 54/54/54 7/137/93
f 58/59/59 56/55/55 7/137/93
f 60/61/61 58/59/59 7/137/93
f 62/63/63 60/61/61 7/137/93
f 64/65/65 62/63/63 7/137/93
f 66/14/14 64/65/65 7/137/93
f 5/138/94 66/14/14 7/137/93
f 67/9/9 5/138/94 7/137/93
f 70/67/67 67/9/9 7/137/93
f 72/69/69 70/67/67 7/137/93
f 74/58/58 72/69/69 7/137/93
f 54/54/54 74/58/58 7/137/93
f 76/72/72 78/76/76 8/139/95
f 78/76/76 80/78/78 8/139/95
f 80/78/78 82/80/80 8/139/95
f 82/80/80 84/82/82 8/139/95
f 84/82/82 86/84/84 8/139/95
f 86/84/84 87/39/39 8/139/95
f 87/39/39 6/140/96 8/139/95
f 6/140/96 90/36/36 8/139/95
f 90/36/36 92/86/86 8/139/95
f 92/86/86 94/88/88 8/139/95
f 94/88/88 96/73/73 8/139/95
f 96/73/73 76/72/72 8/139/95
f 1/112/90 15/11/11 66/14/14 5/138/94
f 16/141/12 37/142/37 88/128/40 65/127/13
f 38/38/38 2/114/92 6/140/96 87/39/39
f 2/114/92 35/34/34 90/36/36 6/140/96
f 36/94/33 13/93/8 68/129/10 89/132/35
f 14/7/7 1/112/90 5/138/94 67/9/9
s 7
f 99/143/97 100/144/98 102/145/99 101/146/100
f 100/144/98 99/143/97 113/147/101 114/148/102
f 101/146/100 102/145/99 104/149/103 103/150/104
f 103/150/104 104/149/103 106/151/105 105/152/106
f 105/152/106 106/151/105 108/153/107 107/154/108
f 107/154/108 108/153/107 110/155/109 109/156/110
f 109/156/110 110/155/109 112/157/111 111/158/112
f 111/158/112 112/157/111 114/148/102 113/147/101
f 115/159/113 116/160/114 130/161/115 129/162/116
f 116/160/114 115/159/113 117/163/117 118/164/118
f 118/164/118 117/163/117 119/165/119 120/166/120
f 120/166/120 119/165/119 121/167/121 122/168/122
f 122/168/122 121/167/121 123/169/123 124/170/124
f 124/170/124 123/169/123 125/171/125 126/172/126
f 126/172/126 125/171/125 127/173/127 128/174/128
f 128/174/128 127/173/127 129/162/116 130/161/115
f 99/175/97 101/176/100 117/177/117 115/178/113
f 101/176/100 103/179/104 119/180/119 117/177/117
f 103/150/104 105/152/106 121/167/121 119/165/119
f 105/152/106 107/181/108 123/182/123 121/167/121
f 107/181/108 109/183/110 125/184/125 123/182/123
f 109/183/110 111/185/112 127/186/127 125/184/125
f 111/185/112 113/187/101 129/188/116 127/186/127
f 113/187/101 99/175/97 115/178/113 129/188/116
f 102/145/99 100/144/98 97/189/129
f 104/149/103 102/145/99 97/189/129
f 106/151/105 104/149/103 97/189/129
f 108/153/107 106/151/105 97/189/129
f 110/155/109 108/153/107 97/189/129
f 112/157/111 110/155/109 97/189/129
f 114/148/102 112/157/111 97/189/129
f 100/144/98 114/148/102 97/189/129
f 116/160/114 118/164/118 98/190/130
f 118/164/118 120/166/120 98/190/130
f 120/166/120 122/168/122 98/190/130
f 122/168/122 124/170/124 98/190/130
f 124/170/124 126/172/126 98/190/130
f 126/172/126 128/174/128 98/190/130
f 128/174/128 130/161/115 98/190/130
f 130/161/115 116/160/114 98/190/130
s 9
f 133/191/131 134/192/132 136/193/133 135/194/134
f 134/192/132 133/191/131 147/195/135 148/196/136
f 135/194/134 136/193/133 138/197/137 137/198/138
f 137/198/138 138/197/137 140/199/139 139/200/140
f 139/200/140 140/199/139 142/201/141 141/202/142
f 141/202/142 142/201/141 144/203/143 143/204/144
f 143/204/144 144/203/143 146/205/145 145/206/146
f 145/206/146 146/205/145 148/196/136 147/195/135
f 149/207/147 150/208/148 164/209/149 163/210/150
f 150/208/148 149/207/147 151/211/151 152/212/152
f 152/212/152 151/211/151 153/213/153 154/214/154
f 154/214/154 153/213/153 155/215/155 156/216/156
f 156/216/156 155/215/155 157/217/157 158/218/158
f 158/218/158 157/217/157 159/219/159 160/220/160
f 160/220/160 159/219/159 161/221/161 162/222/162
f 162/222/162 161/221/161 163/210/150 164/209/149
f 133/223/131 135/224/134 151/225/151 149/226/147
f 135/224/134 137/227/138 153/228/153 151/225/151
f 137/229/138 139/230/140 155/215/155 153/213/153
f 139/200/140 141/202/142 157/231/157 155/232/155
f 141/202/142 143/233/144 159/234/159 157/231/157
f 143/233/144 145/235/146 161/236/161 159/234/159
f 145/235/146 147/237/135 163/238/150 161/236/161
f 147/237/135 133/223/131 149/226/147 163/238/150
f 136/193/133 134/192/132 131/239/163
f 138/197/137 136/193/133 131/239/163
f 140/199/139 138/197/137 131/239/163
f 142/201/141 140/199/139 131/239/163
f 144/203/143 142/201/141 131/239/163
f 146/205/145 144/203/143 131/239/163
f 148/196/136 146/205/145 131/239/163
f 134/192/132 148/196/136 131/239/163
f 150/208/148 152/212/152 132/240/164
f 152/212/152 154/214/154 132/240/164
f 154/214/154 156/216/156 132/240/164
f 156/216/156 158/218/158 132/240/164
f 158/218/158 160/220/160 132/240/164
f 160/220/160 162/222/162 132/240/164
f 162/222/162 164/209/149 132/240/164
f 164/209/149 150/208/148 132/240/164
