# This file uses centimeters as units for non-parametric coordinates.

mtllib MP_SM_Pr_CafeteriaDisc_v01.mtl
g default
v 33.855209 2.111446 -19.546308
v 19.546313 2.111446 -33.855195
v 0.000000 2.111446 -39.092621
v -19.546313 2.111446 -33.855195
v -33.855197 2.111446 -19.546308
v -39.092631 2.111446 0.000009
v -33.855197 2.111446 19.546313
v -19.546313 2.111446 33.855218
v 0.000000 2.111446 39.092626
v 19.546313 2.111446 33.855218
v 33.855209 2.111446 19.546313
v 39.092626 2.111446 0.000009
v 0.000000 21.869740 0.000009
v 33.855209 19.894114 -19.546308
v 32.083900 21.869740 -18.523645
v 19.546313 19.894114 -33.855195
v 18.523650 21.869740 -32.083889
v 0.000000 19.894114 -39.092621
v 0.000000 21.869740 -37.047295
v -19.546313 19.894114 -33.855195
v -18.523650 21.869740 -32.083889
v -33.855197 19.894114 -19.546308
v -32.083893 21.869740 -18.523645
v -39.092631 19.894114 0.000009
v -37.047307 21.869740 0.000009
v -33.855197 19.894114 19.546313
v -32.083893 21.869740 18.523650
v -19.546313 19.894114 33.855218
v -18.523650 21.869740 32.083907
v 0.000000 19.894114 39.092626
v 0.000000 21.869740 37.047307
v 19.546313 19.894114 33.855218
v 18.523650 21.869740 32.083907
v 33.855209 19.894114 19.546313
v 32.083900 21.869740 18.523650
v 39.092626 19.894114 0.000009
v 37.047300 21.869740 0.000009
vt 0.478732 0.074518
vt 0.242742 0.306329
vt 0.277695 0.246649
vt 0.405720 0.074030
vt 0.551744 0.075006
vt 0.182629 0.340528
vt 0.624757 0.075495
vt 0.113471 0.340081
vt 0.697769 0.075983
vt 0.053805 0.305108
vt 0.770781 0.076471
vt 0.019626 0.244981
vt 0.843793 0.076959
vt 0.020104 0.175810
vt 0.916805 0.077448
vt 0.055126 0.116129
vt 0.989818 0.077936
vt 0.115338 0.081932
vt 0.186749 0.072565
vt 0.184099 0.082376
vt 0.259704 0.073053
vt 0.243864 0.117349
vt 0.332709 0.073542
vt 0.278111 0.177477
vt 0.479149 0.012210
vt 0.552161 0.012698
vt 0.625173 0.013187
vt 0.698185 0.013675
vt 0.771198 0.014163
vt 0.844210 0.014651
vt 0.917222 0.015140
vt 0.990234 0.015628
vt 0.187033 0.010257
vt 0.260103 0.010745
vt 0.333123 0.011234
vt 0.406136 0.011722
vt 0.148884 0.211229
vt 0.113599 0.009766
vt 0.112875 0.072072
vt 0.287972 0.174936
vt 0.287505 0.249378
vt 0.251133 0.110218
vt 0.047995 0.108861
vt 0.010294 0.173080
vt 0.009766 0.247522
vt 0.046536 0.312239
vt 0.110741 0.349891
vt 0.185171 0.350388
vt 0.249873 0.313598
vn 0.601667 0.719256 -0.347372
vn 0.601667 0.719256 -0.347372
vn 0.694745 0.719256 0.000000
vn 0.694745 0.719256 -0.000000
vn 0.347372 0.719256 -0.601667
vn 0.347373 0.719256 -0.601667
vn -0.000000 0.719256 -0.694745
vn -0.000000 0.719256 -0.694745
vn -0.347373 0.719256 -0.601667
vn -0.347373 0.719256 -0.601667
vn -0.601667 0.719256 -0.347373
vn -0.601667 0.719256 -0.347373
vn -0.694746 0.719255 0.000000
vn -0.694746 0.719255 0.000000
vn -0.601667 0.719256 0.347373
vn -0.601667 0.719255 0.347373
vn -0.347373 0.719256 0.601667
vn -0.347373 0.719256 0.601667
vn 0.000000 0.719256 0.694745
vn 0.000000 0.719256 0.694745
vn 0.347373 0.719256 0.601667
vn 0.347373 0.719256 0.601667
vn 0.601667 0.719256 0.347372
vn 0.601667 0.719256 0.347373
vn 0.707107 0.000000 -0.707107
vn 0.707107 0.000000 -0.707107
vn 0.707107 0.000000 -0.707107
vn 0.707107 0.000000 -0.707107
vn 0.258819 0.000000 -0.965926
vn 0.000000 0.000000 -1.000000
vn 0.000000 0.000000 -1.000000
vn 0.258819 0.000000 -0.965926
vn -0.258819 0.000000 -0.965926
vn -0.258819 0.000000 -0.965926
vn -0.707107 0.000000 -0.707107
vn -0.866025 0.000000 -0.500000
vn -0.866025 0.000000 -0.500000
vn -0.707107 0.000000 -0.707107
vn -0.965926 0.000000 -0.258820
vn -0.965926 0.000000 -0.258820
vn -0.965926 0.000000 0.258820
vn -0.866025 0.000000 0.500000
vn -0.866025 0.000000 0.500000
vn -0.965926 0.000000 0.258820
vn -0.707107 0.000000 0.707106
vn -0.707107 0.000000 0.707106
vn -0.258819 0.000000 0.965926
vn 0.000000 0.000000 1.000000
vn 0.000000 0.000000 1.000000
vn -0.258819 0.000000 0.965926
vn 0.258819 0.000000 0.965926
vn 0.258819 0.000000 0.965926
vn 0.707107 0.000000 0.707107
vn 0.707107 0.000000 0.707107
vn 0.707107 0.000000 0.707107
vn 0.707107 0.000000 0.707107
vn 0.965926 0.000000 0.258819
vn 1.000000 0.000000 0.000000
vn 1.000000 0.000000 0.000000
vn 0.965926 0.000000 0.258819
vn 0.965926 0.000000 -0.258819
vn 0.965926 0.000000 -0.258819
vn 0.000000 1.000000 0.000000
vn 0.000000 1.000000 0.000000
vn 0.000000 1.000000 0.000000
vn 0.000000 1.000000 0.000000
vn 0.000000 1.000000 0.000000
vn 0.000000 1.000000 0.000000
vn 0.000000 1.000000 0.000000
vn 0.000000 1.000000 0.000000
vn 0.000000 1.000000 0.000000
vn 0.000000 1.000000 0.000000
vn 0.000000 1.000000 0.000000
vn 0.000000 1.000000 0.000000
vn 0.000000 1.000000 0.000000
s 1
g MP_SM_Pr_CafeteriaDisc_v01
usemtl initialShadingGroup
f 14/49/1 15/2/2 37/3/3 36/41/4
f 15/2/2 14/49/1 16/48/5 17/6/6
f 17/6/6 16/48/5 18/47/7 19/8/8
f 19/8/8 18/47/7 20/46/9 21/10/10
f 21/10/10 20/46/9 22/45/11 23/12/12
f 23/12/12 22/45/11 24/44/13 25/14/14
f 25/14/14 24/44/13 26/43/15 27/16/16
f 27/16/16 26/43/15 28/39/17 29/18/18
f 29/18/18 28/39/17 30/19/19 31/20/20
f 31/20/20 30/19/19 32/42/21 33/22/22
f 33/22/22 32/42/21 34/40/23 35/24/24
f 35/24/24 34/40/23 36/41/4 37/3/3
s off
f 1/25/25 2/26/26 16/5/27 14/1/28
s 2
f 2/26/29 3/27/30 18/7/31 16/5/32
f 3/27/30 4/28/33 20/9/34 18/7/31
s 3
f 4/28/35 5/29/36 22/11/37 20/9/38
f 5/29/36 6/30/39 24/13/40 22/11/37
s 4
f 6/30/41 7/31/42 26/15/43 24/13/44
f 7/31/42 8/32/45 28/17/46 26/15/43
s 5
f 8/38/47 9/33/48 30/19/49 28/39/50
f 9/33/48 10/34/51 32/21/52 30/19/49
s off
f 10/34/53 11/35/54 34/23/55 32/21/56
s 6
f 11/35/57 12/36/58 36/4/59 34/23/60
f 12/36/58 1/25/61 14/1/62 36/4/59
s 7
f 15/2/63 17/6/64 13/37/65
f 17/6/64 19/8/66 13/37/65
f 19/8/66 21/10/67 13/37/65
f 21/10/67 23/12/68 13/37/65
f 23/12/68 25/14/69 13/37/65
f 25/14/69 27/16/70 13/37/65
f 27/16/70 29/18/71 13/37/65
f 29/18/71 31/20/72 13/37/65
f 31/20/72 33/22/73 13/37/65
f 33/22/73 35/24/74 13/37/65
f 35/24/74 37/3/75 13/37/65
f 37/3/75 15/2/63 13/37/65
