# This file uses centimeters as units for non-parametric coordinates.

mtllib MP_SM_St_Baston_v01.mtl
g default
v 58.187195 260.430206 6.845634
v 61.543278 246.451675 6.869724
v 7.505323 246.100540 6.845634
v 21.746300 268.098450 6.845634
v 61.927769 262.739960 -3.767765
v 65.994843 246.507523 -3.922894
v 2.658636 246.100525 -4.975656
v 20.730309 272.594360 -4.282175
v 70.958260 268.316162 -8.163979
v 76.768387 246.854263 -8.407455
v -9.042328 246.100525 -9.872194
v 18.277485 283.448486 -8.891464
v 79.988792 273.892395 -3.767761
v 87.552872 247.288742 -3.956963
v -20.743259 246.100510 -4.975655
v 15.824675 294.302612 -4.282175
v 83.729340 276.202118 6.845634
v 92.030907 247.556488 6.821541
v -25.589973 246.100510 6.845634
v 14.808710 298.798523 6.845634
v 79.988792 273.892395 17.459030
v 87.579285 247.500641 17.614159
v -20.743259 246.100510 18.666924
v 15.824675 294.302612 17.973444
v 70.958260 268.316162 21.855247
v 76.805740 247.153915 22.098724
v -9.042326 246.100525 23.563463
v 18.277485 283.448486 22.582733
v 61.927765 262.739960 17.459030
v 66.021286 246.719421 17.648232
v 2.658636 246.100525 18.666924
v 20.730316 272.594391 17.973442
v 22.461590 -1.697189 6.845634
v 15.882755 -1.911896 -9.208988
v 0.000008 -2.430237 -15.859030
v -15.882694 -2.948547 -9.208986
v -22.461582 -3.163254 6.845635
v -15.882692 -2.948547 22.900255
v 0.000008 -2.430237 29.550299
v 15.882755 -1.911896 22.900253
v 70.469475 214.937912 7.582611
v 54.651009 226.849335 6.845634
v 55.239918 222.456802 6.918491
v 58.077049 218.895218 7.116341
v 59.641079 225.619446 -5.649830
v 59.917076 221.308350 -4.719032
v 61.828007 217.971207 -2.206181
v 71.725143 222.800797 -10.825619
v 71.203781 218.563919 -9.492020
v 70.874557 215.686691 -5.934540
v 83.816978 219.927307 -5.649826
v 82.391205 215.807709 -4.608582
v 79.611778 213.392792 -1.870132
v 88.823227 218.687119 6.845634
v 86.940063 214.652237 6.932632
v 82.942749 212.440308 7.160301
v 83.801697 219.794724 19.341095
v 82.315125 215.738068 18.400818
v 79.336288 213.288284 15.912735
v 71.716217 222.729919 24.516884
v 71.195641 218.491394 23.242233
v 70.856224 215.509827 19.810738
v 59.644428 225.642883 19.341099
v 59.948067 221.278656 18.525402
v 61.956688 217.847351 16.309032
v 35.641403 270.102783 6.845634
v 49.570938 268.299805 6.845634
v 51.502884 272.206329 -3.675907
v 35.918007 274.545258 -3.900204
v 56.167038 281.637634 -8.034073
v 36.585793 285.270355 -8.351276
v 60.831188 291.068878 -3.675907
v 37.253578 295.995422 -3.900204
v 62.763142 294.975403 6.845638
v 37.530182 300.437866 6.845634
v 60.831192 291.068878 17.367172
v 37.253578 295.995422 17.591473
v 56.167038 281.637634 21.725346
v 36.585793 285.270355 22.042545
v 51.502899 272.206360 17.367172
v 35.918011 274.545288 17.591473
v 9.289333 254.719009 6.845634
v 17.126772 264.880859 6.845634
v 13.660055 267.858124 -4.182215
v 5.067892 256.927185 -4.531790
v 5.293453 275.047577 -8.750097
v -5.098118 262.249390 -9.244471
v -3.070339 282.238892 -4.182212
v -15.239662 267.562622 -4.531788
v -6.534214 285.217957 6.845635
v -19.435455 269.761597 6.845635
v -3.070282 282.238892 17.873482
v -15.239660 267.562592 18.223059
v 5.293453 275.047577 22.441368
v -5.098118 262.249390 22.935740
v 13.660011 267.858063 17.873482
v 5.067898 256.927246 18.223059
v 8.703114 198.165482 6.845634
v 4.241440 198.019852 17.733650
v -6.530018 197.668320 22.243616
v -17.301437 197.316803 17.733650
v -21.763145 197.171204 6.845635
v -17.301437 197.316803 -4.042381
v -6.530018 197.668320 -8.552345
v 4.241439 198.019852 -4.042382
v 14.109621 79.042709 6.845634
v 9.203503 78.882568 18.818253
v -2.640945 78.496017 23.777473
v -14.485355 78.109482 18.818253
v -19.391510 77.949387 6.845635
v -14.485355 78.109482 -5.126984
v -2.640945 78.496017 -10.086205
v 9.203503 78.882568 -5.126984
vt 0.691289 0.806543
vt 0.811733 0.613313
vt 0.687956 0.758899
vt 0.718575 0.794064
vt 0.710608 0.742430
vt 0.746026 0.780575
vt 0.731193 0.724628
vt 0.770938 0.764245
vt 0.750000 0.705025
vt 0.792417 0.743824
vt 0.767788 0.684490
vt 0.810414 0.720263
vt 0.783616 0.662326
vt 0.824173 0.693810
vt 0.797928 0.638206
vt 0.835242 0.665295
vt 0.198224 0.332090
vt 0.179248 0.357705
vt 0.235431 0.009766
vt 0.032891 0.220767
vt 0.217882 0.307031
vt 0.057528 0.186753
vt 0.238352 0.282432
vt 0.083666 0.154126
vt 0.259742 0.258197
vt 0.111367 0.122559
vt 0.281840 0.234583
vt 0.140377 0.092230
vt 0.304406 0.211851
vt 0.170517 0.063389
vt 0.327524 0.189893
vt 0.202088 0.035922
vt 0.896892 0.650134
vt 0.742784 0.844056
vt 0.776156 0.830893
vt 0.810110 0.813116
vt 0.841067 0.788009
vt 0.863393 0.755098
vt 0.877754 0.719679
vt 0.887480 0.685343
vt 0.934936 0.650398
vt 0.958043 0.656999
vt 0.937940 0.681596
vt 0.921333 0.705025
vt 0.943166 0.709955
vt 0.913926 0.662710
vt 0.908852 0.685245
vt 0.962291 0.699088
vt 0.968933 0.677589
vt 0.905323 0.656025
vt 0.898097 0.685479
vt 0.933365 0.639671
vt 0.964116 0.647835
vt 0.979708 0.675257
vt 0.971289 0.705193
vt 0.944582 0.721070
vt 0.914131 0.713191
vt 0.750924 0.555785
vt 0.637668 0.748857
vt 0.766316 0.611456
vt 0.733566 0.577797
vt 0.621835 0.700336
vt 0.658382 0.729866
vt 0.641391 0.681445
vt 0.677236 0.710606
vt 0.660510 0.661608
vt 0.695110 0.691293
vt 0.679657 0.640858
vt 0.713428 0.671660
vt 0.698557 0.619881
vt 0.731287 0.651608
vt 0.716551 0.599013
vt 0.748871 0.632021
vt 0.716239 0.524850
vt 0.589047 0.668797
vt 0.610433 0.651515
vt 0.630744 0.633594
vt 0.650294 0.614076
vt 0.667933 0.592815
vt 0.683914 0.570942
vt 0.699162 0.548055
vt 0.674003 0.480936
vt 0.553114 0.675521
vt 0.680673 0.530534
vt 0.651587 0.500775
vt 0.537588 0.625743
vt 0.569898 0.651987
vt 0.554806 0.603049
vt 0.584119 0.628347
vt 0.572524 0.580795
vt 0.599337 0.605680
vt 0.590989 0.559982
vt 0.617352 0.584029
vt 0.610025 0.539688
vt 0.637260 0.564103
vt 0.630563 0.520004
vt 0.658436 0.546868
vt 0.496199 0.633582
vt 0.512034 0.606623
vt 0.525329 0.578817
vt 0.539468 0.552803
vt 0.557547 0.529477
vt 0.579125 0.509342
vt 0.603740 0.492878
vt 0.630214 0.477085
vt 0.539065 0.392677
vt 0.401356 0.546017
vt 0.518138 0.412931
vt 0.497106 0.433655
vt 0.476256 0.455313
vt 0.456568 0.478042
vt 0.437846 0.500869
vt 0.419620 0.523553
vt 0.351282 0.168588
vt 0.009766 0.256533
vt 0.559771 0.372357
vt 0.567507 0.687930
vt 0.702568 0.511661
vt 0.519891 0.649881
vt 0.655611 0.458838
vt 0.664486 0.774910
vt 0.783327 0.589068
vt 0.601515 0.719640
vt 0.710507 0.855522
vt 0.845731 0.637016
vt 0.906560 0.720919
vt 0.945122 0.731722
vt 0.980334 0.711902
vt 0.990234 0.672648
vt 0.969617 0.638433
vt 0.931100 0.629152
vn -0.993930 0.110014 0.000981
vn -0.875667 -0.482915 0.000091
vn -0.554532 -0.305249 -0.774156
vn -0.650974 0.086297 -0.754179
vn 0.099128 0.070485 -0.992575
vn 0.095253 0.063250 -0.993442
vn 0.648400 0.398354 -0.648761
vn 0.749087 0.068607 -0.658910
vn 0.852626 0.522520 -0.001320
vn 0.997139 0.075583 -0.000620
vn 0.648981 0.399781 0.647301
vn 0.750011 0.069491 0.657765
vn 0.099499 0.070946 0.992505
vn 0.097645 0.063031 0.993223
vn -0.553710 -0.306624 0.774201
vn -0.648993 0.085040 0.756027
vn 0.708533 0.062612 -0.702894
vn 0.997416 0.071836 -0.000000
vn 0.994692 0.102894 -0.000000
vn 0.706141 0.093835 -0.701826
vn -0.001294 0.039655 -0.999213
vn -0.002320 0.071078 -0.997468
vn -0.711108 0.016284 -0.702894
vn -0.710757 0.047596 -0.701826
vn -0.999978 0.006653 0.000000
vn -0.999285 0.037822 0.000000
vn -0.711108 0.016284 0.702894
vn -0.710757 0.047596 0.701826
vn -0.001294 0.039655 0.999213
vn -0.002320 0.071078 0.997468
vn 0.708533 0.062612 0.702894
vn 0.706141 0.093835 0.701826
vn -0.967759 0.251877 -0.000837
vn -0.681359 0.186475 -0.707797
vn 0.022196 0.035708 -0.999116
vn 0.713788 -0.102312 -0.692848
vn 0.988136 -0.153576 0.001422
vn 0.713881 -0.100538 0.693012
vn 0.025507 0.037024 0.998989
vn -0.680474 0.187238 0.708447
vn -0.481111 -0.833237 -0.272487
vn -0.211201 -0.895247 -0.392334
vn -0.251857 -0.967747 -0.005871
vn -0.208325 -0.883101 0.420397
vn 0.080234 -0.950968 0.298701
vn -0.597484 -0.801874 0.003235
vn -0.490424 -0.821535 0.290801
vn 0.195950 -0.980609 0.003155
vn 0.069345 -0.956635 -0.282916
vn -0.939098 -0.343650 0.000810
vn -0.701971 -0.377849 0.603711
vn -0.698206 -0.397264 -0.595558
vn -0.105331 -0.502819 -0.857950
vn 0.509249 -0.599778 -0.617197
vn 0.772485 -0.635033 -0.000746
vn 0.516981 -0.587669 0.622395
vn -0.101953 -0.480454 0.871074
vn 0.005201 -0.999986 0.000001
vn -0.401159 -0.916009 0.000000
vn -0.259018 -0.578851 0.773202
vn 0.006836 -0.670485 0.741892
vn 0.006836 -0.670485 -0.741892
vn -0.259018 -0.578851 -0.773202
vn 0.027285 0.071970 -0.997033
vn 0.059731 0.101555 -0.993035
vn 0.060561 0.740820 -0.668967
vn 0.349892 0.673542 -0.651089
vn 0.076015 0.997107 0.000000
vn 0.461083 0.887357 0.000000
vn 0.060561 0.740820 0.668968
vn 0.349892 0.673542 0.651089
vn 0.027285 0.071970 0.997033
vn 0.059731 0.101555 0.993035
vn 0.290988 -0.956727 0.000000
vn 0.194589 -0.610672 -0.767603
vn -0.034495 0.104070 -0.993972
vn -0.242566 0.718001 -0.652408
vn -0.319225 0.947679 0.000001
vn -0.242567 0.718000 0.652409
vn -0.034495 0.104070 0.993972
vn 0.194590 -0.610672 0.767604
vn 0.897362 -0.441295 0.000000
vn 0.718482 -0.695546 -0.000000
vn 0.467200 -0.457703 0.756461
vn 0.586260 -0.266618 0.764993
vn 0.586260 -0.266618 -0.764993
vn 0.467199 -0.457702 -0.756461
vn -0.082288 0.068646 -0.994242
vn -0.052502 0.089502 -0.994602
vn -0.673132 0.338698 -0.657402
vn -0.491136 0.577209 -0.652392
vn -0.898526 0.438920 0.000001
vn -0.653239 0.757151 0.000001
vn -0.673132 0.338698 0.657402
vn -0.491136 0.577208 0.652392
vn -0.082288 0.068647 0.994242
vn -0.052503 0.089502 0.994602
vn 0.999870 -0.016129 0.000000
vn 0.689260 -0.016008 -0.724337
vn -0.040605 -0.004048 -0.999167
vn -0.729932 0.017497 -0.683296
vn -0.999619 0.027615 0.000000
vn -0.729932 0.017497 0.683296
vn -0.040604 -0.004048 0.999167
vn 0.689260 -0.016008 0.724337
vn 0.710622 0.028495 0.702997
vn 0.999219 0.039524 0.000000
vn 0.000719 0.001362 0.999999
vn -0.709968 -0.025803 0.703761
vn -0.999320 -0.036861 0.000000
vn -0.709968 -0.025803 -0.703761
vn 0.000719 0.001362 -0.999999
vn 0.710622 0.028495 -0.702997
s 1
g MP_SM_St_Baston_v01
usemtl initialShadingGroup
f 2/1/1 1/121/2 5/3/3 6/4/4
f 6/4/4 5/3/3 9/5/5 10/6/6
f 10/6/6 9/5/5 13/7/7 14/8/8
f 14/8/8 13/7/7 17/9/9 18/10/10
f 18/10/10 17/9/9 21/11/11 22/12/12
f 22/12/12 21/11/11 25/13/13 26/14/14
f 26/14/14 25/13/13 29/15/15 30/16/16
f 30/16/16 29/15/15 1/2/2 2/125/1
f 113/17/17 106/18/18 33/115/19 34/20/20
f 112/21/21 113/17/17 34/20/20 35/22/22
f 111/23/23 112/21/21 35/22/22 36/24/24
f 110/25/25 111/23/23 36/24/24 37/26/26
f 109/27/27 110/25/25 37/26/26 38/28/28
f 108/29/29 109/27/27 38/28/28 39/30/30
f 107/31/31 108/29/29 39/30/30 40/32/32
f 106/114/18 107/31/31 40/32/32 33/19/19
f 42/124/33 2/1/1 6/4/4 45/34/34
f 45/34/34 6/4/4 10/6/6 48/35/35
f 48/35/35 10/6/6 14/8/8 51/36/36
f 51/36/36 14/8/8 18/10/10 54/37/37
f 54/37/37 18/10/10 22/12/12 57/38/38
f 57/38/38 22/12/12 26/14/14 60/39/39
f 60/39/39 26/14/14 30/16/16 63/40/40
f 63/40/40 30/16/16 2/125/1 42/33/33
f 47/41/41 50/42/42 41/43/43
f 62/44/44 41/43/43 59/45/45
f 44/46/46 41/43/43 65/47/47
f 47/41/41 41/43/43 44/46/46
f 65/47/47 41/43/43 62/44/44
f 41/43/43 56/48/48 59/45/45
f 41/43/43 50/42/42 53/49/49
f 41/43/43 53/49/49 56/48/48
f 42/33/33 43/50/50 64/51/51 63/40/40
f 43/50/50 44/46/46 65/47/47 64/51/51
f 44/46/46 43/50/50 46/52/52 47/41/41
f 43/50/50 42/33/33 45/131/34 46/52/52
f 47/41/41 46/52/52 49/53/53 50/42/42
f 46/52/52 45/131/34 48/130/35 49/53/53
f 50/42/42 49/53/53 52/54/54 53/49/49
f 49/53/53 48/130/35 51/129/36 52/54/54
f 53/49/49 52/54/54 55/55/55 56/48/48
f 52/54/54 51/129/36 54/128/37 55/55/55
f 56/48/48 55/55/55 58/56/56 59/45/45
f 55/55/55 54/128/37 57/127/38 58/56/56
f 59/45/45 58/56/56 61/57/57 62/44/44
f 58/56/56 57/127/38 60/126/39 61/57/57
f 62/44/44 61/57/57 64/51/51 65/47/47
f 61/57/57 60/126/39 63/40/40 64/51/51
f 66/58/58 67/122/59 80/60/60 81/61/61
f 67/59/59 66/123/58 69/62/62 68/63/63
f 68/63/63 69/62/62 71/64/64 70/65/65
f 70/65/65 71/64/64 73/66/66 72/67/67
f 72/67/67 73/66/66 75/68/68 74/69/69
f 74/69/69 75/68/68 77/70/70 76/71/71
f 76/71/71 77/70/70 79/72/72 78/73/73
f 78/73/73 79/72/72 81/61/61 80/60/60
f 66/123/58 4/117/74 8/75/75 69/62/62
f 1/121/2 67/59/59 68/63/63 5/3/3
f 69/62/62 8/75/75 12/76/76 71/64/64
f 5/3/3 68/63/63 70/65/65 9/5/5
f 71/64/64 12/76/76 16/77/77 73/66/66
f 9/5/5 70/65/65 72/67/67 13/7/7
f 73/66/66 16/77/77 20/78/78 75/68/68
f 13/7/7 72/67/67 74/69/69 17/9/9
f 75/68/68 20/78/78 24/79/79 77/70/70
f 17/9/9 74/69/69 76/71/71 21/11/11
f 77/70/70 24/79/79 28/80/80 79/72/72
f 21/11/11 76/71/71 78/73/73 25/13/13
f 79/72/72 28/80/80 32/81/81 81/61/61
f 25/13/13 78/73/73 80/60/60 29/15/15
f 81/61/61 32/81/81 4/74/74 66/58/58
f 29/15/15 80/60/60 67/122/59 1/2/2
f 82/82/82 83/118/83 96/84/84 97/85/85
f 83/83/83 82/119/82 85/86/86 84/87/87
f 84/87/87 85/86/86 87/88/88 86/89/89
f 86/89/89 87/88/88 89/90/90 88/91/91
f 88/91/91 89/90/90 91/92/92 90/93/93
f 90/93/93 91/92/92 93/94/94 92/95/95
f 92/95/95 93/94/94 95/96/96 94/97/97
f 94/97/97 95/96/96 97/85/85 96/84/84
f 82/119/82 3/98/98 7/99/99 85/86/86
f 4/117/74 83/83/83 84/87/87 8/75/75
f 85/86/86 7/99/99 11/100/100 87/88/88
f 8/75/75 84/87/87 86/89/89 12/76/76
f 87/88/88 11/100/100 15/101/101 89/90/90
f 12/76/76 86/89/89 88/91/91 16/77/77
f 89/90/90 15/101/101 19/102/102 91/92/92
f 16/77/77 88/91/91 90/93/93 20/78/78
f 91/92/92 19/102/102 23/103/103 93/94/94
f 20/78/78 90/93/93 92/95/95 24/79/79
f 93/94/94 23/103/103 27/104/104 95/96/96
f 24/79/79 92/95/95 94/97/97 28/80/80
f 95/96/96 27/104/104 31/105/105 97/85/85
f 28/80/80 94/97/97 96/84/84 32/81/81
f 97/85/85 31/105/105 3/120/98 82/82/82
f 32/81/81 96/84/84 83/118/83 4/74/74
f 3/120/98 31/105/105 99/106/106 98/116/107
f 31/105/105 27/104/104 100/108/108 99/106/106
f 27/104/104 23/103/103 101/109/109 100/108/108
f 23/103/103 19/102/102 102/110/110 101/109/109
f 19/102/102 15/101/101 103/111/111 102/110/110
f 15/101/101 11/100/100 104/112/112 103/111/111
f 11/100/100 7/99/99 105/113/113 104/112/112
f 7/99/99 3/98/98 98/107/107 105/113/113
f 98/116/107 99/106/106 107/31/31 106/114/18
f 99/106/106 100/108/108 108/29/29 107/31/31
f 100/108/108 101/109/109 109/27/27 108/29/29
f 101/109/109 102/110/110 110/25/25 109/27/27
f 102/110/110 103/111/111 111/23/23 110/25/25
f 103/111/111 104/112/112 112/21/21 111/23/23
f 104/112/112 105/113/113 113/17/17 112/21/21
f 105/113/113 98/107/107 106/18/18 113/17/17
