# This file uses centimeters as units for non-parametric coordinates.

mtllib MP_SM_St_Decoraciones01_v01.mtl
g default
v 377.869965 444.984009 1677.845459
v 377.869965 449.269196 1682.130737
v 371.971680 449.269196 1677.845459
v 427.510742 449.269196 1677.845459
v 421.612427 449.269196 1682.130737
v 421.612427 444.984009 1677.845459
v 371.971680 457.841492 1677.845459
v 377.869965 457.841492 1682.130737
v 377.869965 462.126740 1677.845459
v 421.612427 462.126740 1677.845459
v 421.612427 457.841492 1682.130737
v 427.510742 457.841492 1677.845459
v 371.971680 457.841492 574.489136
v 377.869965 462.126740 574.489136
v 377.869965 457.841492 570.203857
v 421.612427 457.841492 570.203857
v 421.612427 462.126740 574.489136
v 427.510742 457.841492 574.489136
v 371.971680 449.269196 574.489136
v 377.869965 449.269196 570.203857
v 377.869965 444.984009 574.489136
v 421.612427 444.984009 574.489136
v 421.612427 449.269196 570.203857
v 427.510742 449.269196 574.489136
v 381.530396 -66.444336 1660.101807
v 384.980164 -66.444336 1663.551758
v 381.530396 453.361725 1660.101807
v 384.980164 453.361725 1663.551758
v 416.031555 -66.444336 1660.101807
v 412.581848 -66.444336 1663.551758
v 412.581848 453.361725 1663.551758
v 416.031555 453.361725 1660.101807
v 384.980164 453.361725 588.783508
v 381.530396 453.361725 592.233276
v 381.530396 -66.444336 592.233276
v 384.980164 -66.444336 588.783508
v 416.031555 453.361725 592.233276
v 412.581848 453.361725 588.783508
v 416.031555 -66.444336 592.233276
v 412.581848 -66.444336 588.783508
v 435.765259 366.281799 600.047058
v 440.050537 370.566986 600.047058
v 435.765259 370.566986 604.332214
v 435.765259 370.566986 563.982178
v 440.050537 370.566986 568.267395
v 435.765259 366.281799 568.267395
v 435.765259 379.139282 604.332214
v 440.050537 379.139282 600.047058
v 435.765259 383.424530 600.047058
v 435.765259 383.424530 568.267395
v 440.050537 379.139282 568.267395
v 435.765259 379.139282 563.982178
v -257.792236 379.139282 604.332214
v -257.792236 383.424530 600.047058
v -262.077515 379.139282 600.047058
v -262.077515 379.139282 568.267395
v -257.792236 383.424530 568.267395
v -257.792236 379.139282 563.982178
v -257.792236 370.566986 604.332214
v -262.077515 370.566986 600.047058
v -257.792236 366.281799 600.047058
v -257.792236 366.281799 568.267395
v -262.077515 370.566986 568.267395
v -257.792236 370.566986 563.982178
v 417.585358 -145.146561 601.407654
v 420.510773 -145.146561 598.482239
v 417.585358 374.659485 601.407654
v 420.510773 374.659485 598.482239
v 417.585358 -145.146561 566.906555
v 420.510773 -145.146561 569.831970
v 420.510773 374.659485 569.831970
v 417.585358 374.659485 566.906555
v -253.053986 374.659485 598.482239
v -250.128571 374.659485 601.407654
v -249.306488 -145.146561 601.407654
v -251.590149 -145.146561 597.957886
v -250.127411 374.659485 566.906555
v -253.053986 374.659485 569.831970
v -235.932434 -145.146561 566.906555
v -239.383408 -145.146561 569.190491
v 406.384521 365.540100 1633.661743
v -1343.090576 437.730316 1093.005371
v -1315.696655 416.228455 1294.214722
v -1207.173096 397.914062 1455.049683
v -1008.931885 385.600311 1563.896484
v -810.274292 378.161255 1609.223877
v -406.384521 365.540100 1633.661743
v 0.000000 365.540100 1636.570679
v -1299.294922 19.218445 1087.957397
v -1275.581421 19.218445 1278.836914
v -1178.283691 19.218475 1423.389526
v -993.415100 19.218445 1523.072510
v -804.037842 19.218445 1565.718872
v 0.000000 19.218475 1592.473267
v -404.895050 19.218567 1589.604492
v 406.068848 19.218567 1589.564819
v -1311.584961 437.730316 1089.373779
v -1299.294922 425.282410 1087.957397
v -1275.581421 403.800903 1278.836914
v -1287.628662 416.239319 1283.348022
v -1178.283691 385.548035 1423.389526
v -1186.933838 397.914062 1432.869385
v -993.415100 373.230591 1523.072510
v -997.799988 385.597900 1534.793945
v -804.037842 365.790802 1565.718872
v -805.778931 378.160553 1578.017700
v 406.068848 353.175262 1589.564819
v 406.157349 365.540100 1601.929321
v -406.467560 365.576630 1601.895264
v 1.161832 365.540100 1604.830566
v -406.054260 353.213989 1589.535156
v 1.161832 353.175262 1592.465454
v -1398.501099 468.055450 0.000002
v -1391.564697 461.373352 535.449829
v -1347.559326 19.218475 533.176819
v -1354.406372 19.218475 -0.540067
v -1347.559448 449.010559 533.176819
v -1359.914795 461.373352 533.815002
v -1366.770264 468.055450 -0.388635
v -1354.406372 455.689819 -0.540067
vt 0.473973 0.416650
vt 0.477117 0.416650
vt 0.477093 0.892502
vt 0.473948 0.892502
vt 0.484045 0.410438
vt 0.483907 0.407851
vt 0.502870 0.407852
vt 0.502726 0.410421
vt 0.481064 0.410221
vt 0.484074 0.414078
vt 0.481016 0.414304
vt 0.451963 0.416648
vt 0.455107 0.416649
vt 0.455083 0.892501
vt 0.451939 0.892501
vt 0.505787 0.410228
vt 0.505697 0.414311
vt 0.502718 0.414064
vt 0.480814 0.416650
vt 0.483958 0.416650
vt 0.483934 0.892502
vt 0.480789 0.892502
vt 0.502828 0.416651
vt 0.505972 0.416651
vt 0.505948 0.892503
vt 0.502804 0.892503
vt 0.481065 0.894843
vt 0.484044 0.895089
vt 0.484037 0.898732
vt 0.480976 0.898926
vt 0.502688 0.895075
vt 0.505746 0.894848
vt 0.505699 0.898930
vt 0.502718 0.898715
vt 0.483893 0.901302
vt 0.502856 0.901302
vt 0.448242 0.892500
vt 0.448266 0.416648
vt 0.758208 0.487288
vt 0.982425 0.487288
vt 0.982425 0.499194
vt 0.758208 0.499194
vt 0.982425 0.975931
vt 0.758208 0.975931
vt 0.758208 0.964025
vt 0.982425 0.964025
vt 0.758208 0.501298
vt 0.982425 0.501298
vt 0.982425 0.961921
vt 0.758208 0.961921
vt 0.758208 0.024561
vt 0.982425 0.024561
vt 0.982425 0.485183
vt 0.758208 0.485183
vt 0.758208 0.978035
vt 0.982425 0.978035
vt 0.593709 0.657549
vt 0.596323 0.657546
vt 0.596763 0.956698
vt 0.594149 0.956702
vt 0.602866 0.651408
vt 0.602489 0.648813
vt 0.616403 0.648794
vt 0.616032 0.651298
vt 0.600440 0.651151
vt 0.602946 0.655033
vt 0.600406 0.655287
vt 0.577388 0.657574
vt 0.580002 0.657570
vt 0.580441 0.956722
vt 0.577827 0.956726
vt 0.618568 0.651043
vt 0.618473 0.655178
vt 0.616043 0.654921
vt 0.600021 0.657540
vt 0.602635 0.657536
vt 0.603074 0.956689
vt 0.600460 0.956692
vt 0.616361 0.657516
vt 0.571076 0.657583
vt 0.573690 0.657579
vt 0.574130 0.956731
vt 0.571516 0.956735
vt 0.600962 0.959027
vt 0.603392 0.959284
vt 0.603404 0.962907
vt 0.600867 0.963161
vt 0.616801 0.956668
vt 0.616489 0.959172
vt 0.619029 0.958918
vt 0.618996 0.963054
vt 0.616569 0.962796
vt 0.603032 0.965410
vt 0.616946 0.965392
vt 0.525126 0.314369
vt 0.749241 0.314411
vt 0.749239 0.326764
vt 0.525124 0.326721
vt 0.749463 0.625567
vt 0.525402 0.630522
vt 0.525082 0.618174
vt 0.749193 0.612097
vt 0.525124 0.328505
vt 0.749238 0.328548
vt 0.749185 0.610312
vt 0.525069 0.616390
vt 0.525181 0.024699
vt 0.749296 0.025096
vt 0.749242 0.312627
vt 0.525127 0.312585
vt 0.525443 0.632306
vt 0.749504 0.627351
vt 0.127551 0.980458
vt 0.120447 0.984310
vt 0.087328 0.893793
vt 0.095310 0.890461
vt 0.069267 0.804622
vt 0.077605 0.802769
vt 0.057776 0.697138
vt 0.066115 0.696357
vt 0.052570 0.599262
vt 0.060918 0.598875
vt 0.050836 0.403533
vt 0.059190 0.403463
vt 0.059067 0.206755
vt 0.050706 0.206705
vt 0.300363 0.918145
vt 0.270190 0.836469
vt 0.249474 0.763053
vt 0.234100 0.671530
vt 0.225624 0.584630
vt 0.219219 0.207622
vt 0.219256 0.399106
vt 0.106932 0.990483
vt 0.073921 0.898175
vt 0.055283 0.806927
vt 0.043051 0.697990
vt 0.037561 0.599609
vt 0.035664 0.402907
vt 0.035524 0.207161
vt 0.037422 0.012342
vt 0.052604 0.012493
vt 0.060970 0.012573
vt 0.220700 0.013830
vt 0.239679 0.274045
vt 0.238732 0.065565
vt 0.493696 0.067598
vt 0.494628 0.272887
vt 0.238833 0.042055
vt 0.494625 0.044125
vt 0.493918 0.059247
vt 0.238721 0.057212
vn -0.085818 -0.996305 0.003564
vn -0.909214 -0.416313 0.003672
vn -0.909214 -0.416313 -0.003672
vn -0.085818 -0.996305 -0.003564
vn -0.066382 -0.300694 0.951408
vn 0.085818 -0.996305 0.003564
vn 0.066382 -0.300694 0.951408
vn -0.066382 0.300694 0.951408
vn -0.909215 0.416311 0.003672
vn 0.909213 -0.416314 0.003672
vn 0.085818 -0.996304 -0.003564
vn 0.909213 -0.416314 -0.003672
vn 0.909214 0.416313 0.003672
vn 0.066382 0.300693 0.951408
vn -0.085820 0.996304 0.003564
vn -0.085820 0.996304 -0.003564
vn -0.909215 0.416311 -0.003672
vn 0.085819 0.996304 0.003564
vn 0.909214 0.416313 -0.003672
vn 0.085819 0.996304 -0.003564
vn -0.066383 0.300694 -0.951408
vn -0.066383 -0.300694 -0.951408
vn 0.066383 0.300693 -0.951408
vn 0.066382 -0.300694 -0.951408
vn 0.000000 0.000000 1.000000
vn 0.000000 0.000000 1.000000
vn 0.000000 0.000000 1.000000
vn 0.000000 0.000000 1.000000
vn 0.000000 0.000000 -1.000000
vn 0.000000 0.000000 -1.000000
vn 0.000000 0.000000 -1.000000
vn 0.000000 0.000000 -1.000000
vn 1.000000 0.000000 0.000000
vn 1.000000 0.000000 0.000000
vn 1.000000 0.000000 0.000000
vn 1.000000 0.000000 0.000000
vn -1.000000 0.000000 0.000000
vn -1.000000 0.000000 0.000000
vn -1.000000 0.000000 0.000000
vn -1.000000 0.000000 0.000000
vn -0.707127 0.000000 0.707087
vn -0.707127 0.000000 0.707087
vn -0.707127 0.000000 0.707087
vn -0.707127 0.000000 0.707087
vn 0.707133 0.000000 0.707080
vn 0.707133 0.000000 0.707080
vn 0.707133 0.000000 0.707080
vn 0.707133 0.000000 0.707080
vn -0.707108 0.000000 -0.707105
vn -0.707108 0.000000 -0.707105
vn -0.707108 0.000000 -0.707105
vn -0.707108 0.000000 -0.707105
vn 0.707115 0.000000 -0.707099
vn 0.707115 0.000000 -0.707099
vn 0.707115 0.000000 -0.707099
vn 0.707115 0.000000 -0.707099
vn 0.005618 -0.993049 0.117568
vn 0.004539 -0.315401 0.948948
vn -0.004539 -0.315401 0.948948
vn -0.005618 -0.993049 0.117568
vn 0.949855 -0.299407 0.090167
vn 0.005618 -0.993049 -0.117567
vn 0.949856 -0.299407 -0.090167
vn 0.949856 0.299406 0.090167
vn 0.004539 0.315400 0.948948
vn 0.004539 -0.315405 -0.948946
vn -0.005618 -0.993049 -0.117567
vn -0.004539 -0.315405 -0.948946
vn 0.004539 0.315404 -0.948947
vn 0.949856 0.299405 -0.090166
vn 0.005618 0.993049 0.117569
vn -0.005618 0.993049 0.117569
vn -0.004539 0.315400 0.948948
vn 0.005618 0.993049 -0.117569
vn -0.004539 0.315404 -0.948947
vn -0.005618 0.993049 -0.117569
vn -0.949856 0.299404 0.090167
vn -0.949856 -0.299405 0.090167
vn -0.949857 0.299404 -0.090167
vn -0.949856 -0.299405 -0.090167
vn 1.000000 0.000000 0.000000
vn 1.000000 0.000000 0.000000
vn 1.000000 0.000000 0.000000
vn 1.000000 0.000000 0.000000
vn -0.978044 -0.014005 -0.207928
vn -0.978044 -0.014005 -0.207928
vn -0.978044 -0.014005 -0.207928
vn -0.978044 -0.014005 -0.207928
vn 0.000000 0.000000 -1.000000
vn 0.000000 0.000000 -1.000000
vn 0.000000 0.000000 -1.000000
vn 0.000000 0.000000 -1.000000
vn 0.000000 0.000000 1.000000
vn 0.000000 0.000000 1.000000
vn 0.000000 0.000000 1.000000
vn 0.000000 0.000000 1.000000
vn 0.707101 0.000000 0.707112
vn 0.707101 0.000000 0.707112
vn 0.707101 0.000000 0.707112
vn 0.707101 0.000000 0.707112
vn 0.707109 0.000000 -0.707105
vn 0.707109 0.000000 -0.707105
vn 0.707109 0.000000 -0.707105
vn 0.707109 0.000000 -0.707105
vn -0.774367 -0.002022 0.632734
vn -0.774367 -0.002022 0.632734
vn -0.774367 -0.002022 0.632734
vn -0.774367 -0.002022 0.632734
vn -0.632526 -0.016476 -0.774364
vn -0.632526 -0.016476 -0.774364
vn -0.632526 -0.016476 -0.774364
vn -0.632526 -0.016476 -0.774364
vn 0.992242 0.034701 -0.119381
vn 0.283206 0.956529 0.069623
vn 0.249775 0.968128 0.018465
vn 0.948216 0.035492 -0.315638
vn 0.198260 0.973364 -0.115130
vn 0.668694 0.037267 -0.742603
vn 0.128582 0.969519 -0.208565
vn 0.362237 0.035917 -0.931394
vn 0.060533 0.967392 -0.245945
vn 0.116028 0.036480 -0.992576
vn 0.024118 0.964145 -0.264276
vn 0.034292 0.035213 -0.998791
vn -0.000018 0.035768 -0.999360
vn 0.000037 0.963346 -0.268260
vn 0.992371 0.000000 -0.123285
vn 0.942722 0.000000 -0.333580
vn 0.658299 0.000000 -0.752757
vn 0.357252 0.000000 -0.934008
vn 0.113418 0.000000 -0.993547
vn 0.000010 -0.000058 -1.000000
vn 0.033415 -0.000058 -0.999442
vn 0.025340 0.994164 0.104865
vn 0.039390 0.994859 0.093298
vn 0.050936 0.997324 0.052445
vn 0.041989 0.998928 0.019498
vn 0.032766 0.999451 0.004900
vn 0.015121 0.999884 0.001630
vn 0.000021 1.000000 0.000294
vn 0.000000 1.000000 -0.000001
vn -0.001932 0.962955 -0.269654
vn -0.007158 0.035636 -0.999339
vn -0.007163 0.000001 -0.999974
vn 0.999918 0.000000 -0.012828
vn 0.999527 0.028131 -0.012471
vn 0.999534 0.027857 -0.012474
vn 0.999918 0.000000 -0.012828
vn 0.000399 0.999922 0.012488
vn 0.000399 0.999922 0.012488
vn 0.263695 0.964567 0.008672
vn 0.269063 0.963085 0.008585
s 1
g MP_SM_St_Decoraciones01_v01
usemtl initialShadingGroup
f 1/1/1 3/2/2 19/3/3 21/4/4
f 2/5/5 1/6/1 6/7/6 5/8/7
f 3/9/2 2/5/5 8/10/8 7/11/9
f 4/12/10 6/13/6 22/14/11 24/15/12
f 5/8/7 4/16/10 12/17/13 11/18/14
f 7/19/9 9/20/15 14/21/16 13/22/17
f 9/20/15 8/10/8 11/18/14 10/23/18
f 10/23/18 12/24/13 18/25/19 17/26/20
f 13/27/17 15/28/21 20/29/22 19/30/3
f 15/28/21 14/21/16 17/26/20 16/31/23
f 16/31/23 18/32/19 24/33/12 23/34/24
f 21/35/4 20/29/22 23/34/24 22/36/11
f 2/5/5 5/8/7 11/18/14 8/10/8
f 9/20/15 10/23/18 17/26/20 14/21/16
f 15/28/21 16/31/23 23/34/24 20/29/22
f 21/4/4 22/14/11 6/13/6 1/1/1
f 4/12/10 24/15/12 18/37/19 12/38/13
f 19/3/3 3/2/2 7/19/9 13/22/17
f 1/6/1 2/5/5 3/9/2
f 4/16/10 5/8/7 6/7/6
f 7/11/9 8/10/8 9/20/15
f 10/23/18 11/18/14 12/17/13
f 13/27/17 14/21/16 15/28/21
f 16/31/23 17/26/20 18/32/19
f 19/30/3 20/29/22 21/35/4
f 22/36/11 23/34/24 24/33/12
s off
f 28/39/25 26/40/26 30/41/27 31/42/28
f 36/43/29 33/44/30 38/45/31 40/46/32
f 32/47/33 29/48/34 39/49/35 37/50/36
f 34/51/37 35/52/38 25/53/39 27/54/40
f 25/53/41 26/40/42 28/39/43 27/54/44
f 30/41/45 29/48/46 32/47/47 31/42/48
f 34/55/49 33/44/50 36/43/51 35/56/52
f 38/45/53 37/50/54 39/49/55 40/46/56
s 2
f 41/57/57 43/58/58 59/59/59 61/60/60
f 42/61/61 41/62/57 46/63/62 45/64/63
f 43/65/58 42/61/61 48/66/64 47/67/65
f 44/68/66 46/69/62 62/70/67 64/71/68
f 45/64/63 44/72/66 52/73/69 51/74/70
f 47/75/65 49/76/71 54/77/72 53/78/73
f 49/76/71 48/66/64 51/74/70 50/79/74
f 50/80/74 52/81/69 58/82/75 57/83/76
f 53/84/73 55/85/77 60/86/78 59/87/59
f 55/85/77 54/77/72 57/88/76 56/89/79
f 56/89/79 58/90/75 64/91/68 63/92/80
f 61/93/60 60/86/78 63/92/80 62/94/67
f 42/61/61 45/64/63 51/74/70 48/66/64
f 49/76/71 50/79/74 57/88/76 54/77/72
f 55/85/77 56/89/79 63/92/80 60/86/78
f 61/60/60 62/70/67 46/69/62 41/57/57
f 44/68/66 64/71/68 58/82/75 52/81/69
f 59/59/59 43/58/58 47/75/65 53/78/73
f 41/62/57 42/61/61 43/65/58
f 44/72/66 45/64/63 46/63/62
f 47/67/65 48/66/64 49/76/71
f 50/79/74 51/74/70 52/73/69
f 53/84/73 54/77/72 55/85/77
f 56/89/79 57/88/76 58/90/75
f 59/87/59 60/86/78 61/93/60
f 62/94/67 63/92/80 64/91/68
s off
f 68/95/81 66/96/82 70/97/83 71/98/84
f 76/99/85 73/100/86 78/101/87 80/102/88
f 72/103/89 69/104/90 79/105/91 77/106/92
f 74/107/93 75/108/94 65/109/95 67/110/96
f 65/109/97 66/96/98 68/95/99 67/110/100
f 70/97/101 69/104/102 72/103/103 71/98/104
f 74/111/105 73/100/106 76/99/107 75/112/108
f 78/101/109 77/106/110 79/105/111 80/102/112
s 3
f 98/113/113 97/114/114 100/115/115 99/116/116
f 99/116/116 100/115/115 102/117/117 101/118/118
f 101/118/118 102/117/117 104/119/119 103/120/120
f 103/120/120 104/119/119 106/121/121 105/122/122
f 105/122/122 106/121/121 109/123/123 111/124/124
f 112/125/125 111/124/124 109/123/123 110/126/126
f 89/127/127 98/113/113 99/116/116 90/128/128
f 90/128/128 99/116/116 101/118/118 91/129/129
f 91/129/129 101/118/118 103/120/120 92/130/130
f 92/130/130 103/120/120 105/122/122 93/131/131
f 111/124/124 112/125/125 94/132/132 95/133/133
f 105/122/122 111/124/124 95/133/133 93/131/131
f 82/134/134 83/135/135 100/115/115 97/114/114
f 83/135/135 84/136/136 102/117/117 100/115/115
f 84/136/136 85/137/137 104/119/119 102/117/117
f 85/137/137 86/138/138 106/121/121 104/119/119
f 87/139/139 88/140/140 110/126/126 109/123/123
f 86/138/138 87/139/139 109/123/123 106/121/121
f 88/140/140 81/141/141 108/142/142 110/126/126
f 112/125/125 107/143/143 96/144/144 94/132/132
f 112/125/125 110/126/126 108/142/142 107/143/143
s 4
f 116/145/145 120/146/146 117/147/147 115/148/148
f 113/149/149 114/150/150 118/151/151 119/152/152
f 118/151/151 117/147/147 120/146/146 119/152/152
